<?xml version="1.0" standalone="no"?>
<!DOCTYPE svg PUBLIC "-//W3C//DTD SVG 20010904//EN"
 "http://www.w3.org/TR/2001/REC-SVG-20010904/DTD/svg10.dtd">
<svg version="1.0" xmlns="http://www.w3.org/2000/svg"
 width="300.000000pt" height="300.000000pt" viewBox="0 0 300.000000 300.000000"
 preserveAspectRatio="xMidYMid meet">

<g transform="translate(0.000000,300.000000) scale(0.100000,-0.100000)"
fill="#000000" stroke="none">
<path d="M1415 2354 c-192 -28 -338 -91 -469 -203 -195 -166 -299 -393 -299
-651 0 -357 203 -656 541 -797 277 -115 629 -57 864 145 197 168 302 395 302
652 0 355 -205 657 -541 797 -103 42 -302 71 -398 57z m-285 -833 l0 -200 -26
-20 c-32 -25 -52 -26 -82 -5 -20 14 -32 66 -14 63 42 -7 42 -8 42 181 l0 180
40 0 40 0 0 -199z m324 177 c-3 -13 -13 -35 -20 -50 -19 -38 -19 -38 31 -38
l45 0 -35 -70 c-19 -38 -35 -72 -35 -75 0 -3 11 -5 25 -5 l24 0 -20 -35 c-18
-30 -26 -35 -59 -35 -75 0 -86 19 -50 90 26 50 26 50 -10 50 -46 0 -47 23 -4
111 38 78 38 79 77 79 35 0 38 -2 31 -22z m442 7 c4 -9 19 -15 36 -15 42 0 75
-38 83 -94 6 -39 12 -49 34 -57 54 -21 61 -35 61 -129 0 -98 -10 -116 -71
-126 -26 -4 -41 0 -62 16 -38 30 -32 54 13 54 32 1 35 4 38 33 6 56 -11 73
-73 73 l-54 0 -3 -87 -3 -88 -40 0 -40 0 -3 88 -3 87 -40 0 -40 0 3 38 c3 34
6 37 38 42 29 4 36 10 38 32 3 22 -2 30 -22 38 -21 8 -26 16 -26 45 0 30 3 35
24 35 13 0 26 7 30 15 3 9 19 15 41 15 22 0 38 -6 41 -15z m-188 -52 c3 -27
-1 -35 -22 -45 -26 -11 -26 -13 -26 -124 l0 -113 38 -3 c36 -3 37 -4 37 -43
l0 -40 -142 -3 c-79 -1 -143 0 -143 3 0 12 33 70 44 77 6 4 26 8 44 8 l32 0 0
115 c0 114 0 115 -25 121 -21 5 -25 12 -25 45 l0 40 93 -3 92 -3 3 -32z m396
15 c16 -26 -4 -52 -41 -56 -38 -4 -50 21 -28 55 19 28 52 28 69 1z m-1109 -85
c-2 -16 -7 -58 -10 -95 -6 -69 -19 -120 -41 -152 -11 -17 -14 -15 -34 23 -21
43 -22 63 -4 209 l5 42 44 0 c43 0 44 -1 40 -27z m269 19 c2 -4 8 -51 12 -105
6 -83 4 -103 -12 -138 -18 -41 -18 -41 -35 -20 -20 24 -35 91 -44 199 l-6 72
40 0 c22 0 42 -4 45 -8z m179 -238 c3 -4 -3 -24 -14 -45 -19 -39 -20 -39 -78
-39 -32 0 -60 2 -63 6 -3 3 4 23 16 44 21 39 22 40 77 40 31 0 58 -3 62 -6z"/>
<path d="M1900 1575 c0 -25 4 -35 13 -32 6 2 12 16 12 32 0 16 -6 30 -12 33
-9 2 -13 -8 -13 -33z"/>
</g>
</svg>
